<svg width="40" height="40" viewBox="0 0 40 40" fill="none" xmlns="http://www.w3.org/2000/svg">
<circle cx="20" cy="20" r="20" fill="url(#paint0_linear_16_5049)"/>
<circle cx="20" cy="20" r="18" stroke="#1E2029" stroke-width="4"/>
<path d="M40 20H20V40H38C39.1046 40 40 39.1046 40 38V20Z" fill="#1E2029"/>
<circle cx="20" cy="20" r="17" fill="url(#paint1_linear_16_5049)"/>
<path d="M35 35H36V36H35V35Z" fill="#F9F9F9"/>
<path d="M35 37H36V38H35V37Z" fill="#F9F9F9"/>
<path d="M37 35H38V36H37V35Z" fill="#F9F9F9"/>
<path d="M37 33H38V34H37V33Z" fill="#F9F9F9"/>
<path d="M37 37H38V38H37V37Z" fill="#F9F9F9"/>
<path d="M33 37H34V38H33V37Z" fill="#F9F9F9"/>
<rect x="25" y="19.5" width="3" height="3" fill="white"/>
<rect x="20" y="12" width="3" height="10.5" fill="white"/>
<path fill-rule="evenodd" clip-rule="evenodd" d="M23 22.5C23 25.5376 20.5376 28 17.5 28C14.4624 28 12 25.5376 12 22.5H15C15 23.8807 16.1193 25 17.5 25C18.8807 25 20 23.8807 20 22.5V17.5997C21.7808 18.5101 23 20.3626 23 22.5Z" fill="white"/>
<defs>
<linearGradient id="paint0_linear_16_5049" x1="-2.24682e-07" y1="6.875" x2="40" y2="33.125" gradientUnits="userSpaceOnUse">
<stop stop-color="#FF934F"/>
<stop offset="1" stop-color="#FF715B"/>
</linearGradient>
<linearGradient id="paint1_linear_16_5049" x1="3" y1="8.84375" x2="37" y2="31.1563" gradientUnits="userSpaceOnUse">
<stop stop-color="#FF934F"/>
<stop offset="1" stop-color="#FF715B"/>
</linearGradient>
</defs>
</svg>
